<svg width="24" height="22" viewBox="0 0 24 22" fill="none" xmlns="http://www.w3.org/2000/svg">
<path d="M2.58357 2.20015L4.81194 14.4607C4.85263 14.7175 4.99174 14.9526 5.20434 15.124C5.42861 15.3063 5.71939 15.4048 6.01913 15.4001H19.1998C19.4517 15.4001 19.6973 15.3275 19.9017 15.1924C20.1061 15.0574 20.2589 14.8668 20.3386 14.6477L23.9385 4.74773C23.9986 4.58237 24.015 4.40628 23.9862 4.23399C23.9575 4.06169 23.8845 3.89812 23.7733 3.75675C23.6621 3.61537 23.5158 3.50025 23.3466 3.42087C23.1773 3.34148 22.9899 3.3001 22.7997 3.30014H5.21634L4.78794 0.935163C4.74396 0.664952 4.59111 0.419659 4.35955 0.247668C4.14008 0.0832956 3.86412 -0.00440154 3.58076 0.000170123H1.19999C0.88173 0.000170123 0.576509 0.116062 0.351468 0.32235C0.126427 0.528639 0 0.808426 0 1.10016C0 1.3919 0.126427 1.67168 0.351468 1.87797C0.576509 2.08426 0.88173 2.20015 1.19999 2.20015H2.58357ZM7.01632 13.2001L5.61593 5.50013H21.1353L18.3346 13.2001H7.01632ZM9.59988 19.8C9.59988 20.3835 9.34703 20.9431 8.89695 21.3556C8.44687 21.7682 7.83643 22 7.19991 22C6.5634 22 5.95296 21.7682 5.50288 21.3556C5.0528 20.9431 4.79994 20.3835 4.79994 19.8C4.79994 19.2165 5.0528 18.657 5.50288 18.2444C5.95296 17.8318 6.5634 17.6 7.19991 17.6C7.83643 17.6 8.44687 17.8318 8.89695 18.2444C9.34703 18.657 9.59988 19.2165 9.59988 19.8ZM20.3998 19.8C20.3998 20.3835 20.1469 20.9431 19.6968 21.3556C19.2467 21.7682 18.6363 22 17.9998 22C17.3633 22 16.7528 21.7682 16.3027 21.3556C15.8527 20.9431 15.5998 20.3835 15.5998 19.8C15.5998 19.2165 15.8527 18.657 16.3027 18.2444C16.7528 17.8318 17.3633 17.6 17.9998 17.6C18.6363 17.6 19.2467 17.8318 19.6968 18.2444C20.1469 18.657 20.3998 19.2165 20.3998 19.8Z" fill="#0D0D0D"/>
</svg>
